<?xml version="1.0" encoding="utf-8"?>
<!-- Generator: Adobe Illustrator 22.1.0, SVG Export Plug-In . SVG Version: 6.00 Build 0)  -->
<svg version="1.1" id="Capa_1" xmlns="http://www.w3.org/2000/svg" xmlns:xlink="http://www.w3.org/1999/xlink" x="0px" y="0px"
	 viewBox="0 0 25 19" style="enable-background:new 0 0 25 19;" xml:space="preserve">
<style type="text/css">
	.st0{fill:#F86156;}
</style>
<path class="st0" d="M13.7,16.2c0.2-0.1,0.4-0.2,0.5-0.4c0.1-0.2,0.1-0.5,0-0.7c0-0.2-0.2-0.4-0.4-0.5c-0.4-0.3-0.8-0.5-1.2-0.8
	s-0.7-0.5-1.1-0.8c-0.7-0.5-1.5-1-2.3-1.4c-0.8-0.5-1.5-0.9-2.3-1.4c-0.3-0.2-0.7-0.4-1-0.6C5.8,9.5,5.7,9.5,5.6,9.4
	c0.1,0,0.1-0.1,0.2-0.1c0.3-0.2,0.7-0.4,1-0.7c0.6-0.5,1.3-1,1.9-1.5c0.7-0.5,1.4-1,2.1-1.4c0.7-0.4,1.9-1.3,2.6-1.8
	c0.2-0.1,0.3-0.3,0.4-0.5c0-0.2,0-0.5-0.1-0.7c-0.2-0.4-0.8-0.5-1.2-0.3c-0.7,0.5-1.9,1.4-2.6,1.9c-0.8,0.4-1.5,1-2.2,1.5
	s-1.3,1-1.9,1.5C5.5,7.5,5.1,7.8,4.7,8C4.5,8.1,4.4,8.2,4.2,8.3C4.1,8.4,3.9,8.5,3.8,8.6L3.7,8.7C3.6,8.8,3.5,9,3.4,9.2
	c-0.1,0.3,0,0.6,0.1,0.8s0.3,0.3,0.5,0.5c0.2,0.1,0.4,0.2,0.5,0.3c0.4,0.2,0.8,0.4,1.1,0.6c0.8,0.4,1.5,0.9,2.3,1.3
	c0.7,0.4,1.5,0.9,2.2,1.4c0.8,0.5,1.5,1,2.3,1.5c0.2,0.1,0.4,0.3,0.6,0.4c0.1,0.1,0.2,0.1,0.4,0.1C13.5,16.2,13.6,16.2,13.7,16.2
	L13.7,16.2L13.7,16.2z M4.7,9L4.7,9L4.7,9L4.7,9L4.7,9z"/>
</svg>
