<?xml version="1.0" encoding="utf-8"?>
<!-- Generator: Adobe Illustrator 22.1.0, SVG Export Plug-In . SVG Version: 6.00 Build 0)  -->
<svg version="1.1" id="Capa_1" xmlns="http://www.w3.org/2000/svg" xmlns:xlink="http://www.w3.org/1999/xlink" x="0px" y="0px"
	 viewBox="0 0 26 19" style="enable-background:new 0 0 26 19;" xml:space="preserve">
<style type="text/css">
	.st0{fill:#F86156;}
</style>
<path class="st0" d="M9.5,2.6C9.3,2.7,9.1,2.8,9,3C8.9,3.2,8.9,3.5,9,3.7C9,3.9,9.2,4.1,9.4,4.2c0.4,0.3,0.8,0.5,1.2,0.8
	c0.4,0.3,0.7,0.5,1.1,0.8c0.7,0.5,1.5,1,2.3,1.4c0.8,0.5,1.5,0.9,2.3,1.4C16.6,8.8,17,9,17.3,9.2c0.1,0.1,0.2,0.1,0.3,0.2
	c-0.1,0-0.1,0.1-0.2,0.1c-0.3,0.2-0.7,0.4-1,0.7c-0.6,0.5-1.3,1-1.9,1.5c-0.7,0.5-1.4,1-2.1,1.4c-0.7,0.4-1.9,1.3-2.6,1.8
	c-0.2,0.1-0.3,0.3-0.4,0.5c0,0.2,0,0.5,0.1,0.7c0.2,0.4,0.8,0.5,1.2,0.3c0.7-0.5,1.9-1.4,2.6-1.9c0.8-0.4,1.5-1,2.2-1.5
	c0.7-0.5,1.3-1,1.9-1.5c0.3-0.2,0.7-0.5,1.1-0.7c0.2-0.1,0.3-0.2,0.5-0.3c0.1-0.1,0.3-0.2,0.4-0.3c0,0,0.1-0.1,0.1-0.1
	c0.1-0.1,0.2-0.3,0.3-0.5c0.1-0.3,0-0.6-0.1-0.8c-0.1-0.2-0.3-0.3-0.5-0.5c-0.2-0.1-0.4-0.2-0.5-0.3c-0.4-0.2-0.8-0.4-1.1-0.6
	c-0.8-0.4-1.5-0.9-2.3-1.3c-0.7-0.4-1.5-0.9-2.2-1.4c-0.8-0.5-1.5-1-2.3-1.5c-0.2-0.1-0.4-0.3-0.6-0.4c-0.1-0.1-0.2-0.1-0.4-0.1
	C9.7,2.6,9.6,2.6,9.5,2.6L9.5,2.6L9.5,2.6z M18.5,9.8C18.5,9.8,18.5,9.8,18.5,9.8C18.5,9.8,18.5,9.8,18.5,9.8L18.5,9.8L18.5,9.8z"/>
</svg>
