<svg id="Capa_1" data-name="Capa 1" xmlns="http://www.w3.org/2000/svg" viewBox="0 0 7.57 5.66"><defs><style>.cls-1{fill:#f79668;}</style></defs><title>email</title><path class="cls-1" d="M10.53,8.33c0,.33-.4.24-.59.24-1.06,0-2.11.24-3.17.25A19.72,19.72,0,0,0,3.43,9a.26.26,0,0,1-.32-.24c0-.66,0-1.32,0-2A10.71,10.71,0,0,1,3,5.11S3,5.05,3,5L3,5H3a.14.14,0,0,1,.13-.14,2.51,2.51,0,0,1,1.11-.36c.75-.17,1.48-.35,2.21-.55a12.64,12.64,0,0,1,2.25-.52c.36,0,.71,0,1.06,0a1.2,1.2,0,0,1,.5,0,.2.2,0,0,1,.14.31l0,0c.06,1,.06,2.07.08,3.11C10.48,7.37,10.55,7.85,10.53,8.33Zm-.42-.23s0-.08,0-.12a13.93,13.93,0,0,1,0-1.44c0-.77,0-1.54,0-2.31-.41.54-.87,1.06-1.26,1.62l-.2.28A3.26,3.26,0,0,0,9,6.68a4.7,4.7,0,0,1,.45.55.19.19,0,0,1-.3.23C9,7.24,8.82,7,8.63,6.77a3.33,3.33,0,0,1-.24-.32c-.13.17-.24.34-.37.5s-.27.41-.52.41-.29-.21-.45-.25a2,2,0,0,1-.4-.17l-.43-.22s-.06.09-.08.15a2.38,2.38,0,0,1-.23.41,2.24,2.24,0,0,1-.53.62.19.19,0,0,1-.26-.26c.16-.25.39-.45.55-.7a4,4,0,0,1,.23-.37l-.41-.2c-.67-.35-1.38-.66-2-1,0,.55.1,1.12.14,1.66s0,1,0,1.52a21.59,21.59,0,0,1,2.66-.17c1,0,1.9-.15,2.87-.19a5.62,5.62,0,0,1,.82,0A.36.36,0,0,0,10.11,8.1ZM3.51,5c.61.33,1.25.62,1.87.92.39.2.77.39,1.17.56a6.53,6.53,0,0,1,.85.39c.17.12.2,0,.33-.22l.34-.48c.19-.29.4-.59.61-.87.4-.5.82-1,1.19-1.52a3,3,0,0,1-.39,0,3.88,3.88,0,0,0-1,0c-.64.11-1.25.28-1.88.45s-1.26.34-1.9.47A5.85,5.85,0,0,0,3.51,5Z" transform="translate(-2.96 -3.37)"/></svg>