<?xml version="1.0" encoding="UTF-8"?>
<svg id="Capa_1" data-name="Capa 1" xmlns="http://www.w3.org/2000/svg" viewBox="0 0 271.1 44">
  <defs>
    <style>
      .cls-1 {
        fill: #ff007a;
      }

      .cls-2 {
        fill: #0c00ff;
      }
    </style>
  </defs>
  <path class="cls-2" d="m0,10.4h12.1v30.9H0V10.4Zm10.3,10.7h34v9.2H10.3v-9.2Zm32.7-10.7h12.1v30.9h-12.1V10.4Z"/>
  <path class="cls-2" d="m69.1,28.3v3.9h36.7v9.2h-48.8V10.4h48.7v9.2h-36.6v3.9h30v4.8h-30Z"/>
  <path class="cls-2" d="m119.4,10.4v21.8h28.2v9.2h-40.3V10.4h12.1Z"/>
  <path class="cls-2" d="m160.2,10.4v21.8h28.2v9.2h-40.3V10.4h12.1Z"/>
  <path class="cls-2" d="m216.2,42.3c-7,0-12.7-.6-17-1.9-4.3-1.2-7.4-3.1-9.4-5.5-2-2.4-2.9-5.5-2.9-9.1s1-6.6,2.9-9.1c1.9-2.4,5.1-4.3,9.4-5.5,4.3-1.2,9.9-1.9,17-1.9s12.7.6,17,1.9c4.3,1.2,7.4,3.1,9.4,5.5,1.9,2.4,2.9,5.5,2.9,9.1s-1,6.6-2.9,9.1c-2,2.4-5.1,4.3-9.4,5.5s-9.9,1.9-17,1.9Zm0-9.2c3.3,0,6.2-.2,8.6-.6,2.4-.4,4.3-1.1,5.6-2.2s2-2.5,2-4.5-.7-3.4-2-4.5c-1.3-1-3.2-1.8-5.6-2.2-2.4-.4-5.3-.6-8.6-.6s-6.2.2-8.7.6c-2.5.4-4.4,1.1-5.8,2.2-1.4,1-2.1,2.5-2.1,4.5s.7,3.4,2.1,4.5c1.4,1,3.4,1.8,5.8,2.2,2.5.4,5.4.6,8.7.6Z"/>
  <rect class="cls-2" x="254.9" width="12.1" height="23.5"/>
  <path class="cls-1" d="m271.1,35.4c.2-2.1-1.4-3.9-3.4-4-.2,0-.5,0-.7,0,.1-.2.2-.4.3-.6.8-1.9-.1-4.1-2-4.9-1.9-.8-4.1.1-4.9,2,0,.2-.2.4-.2.7-.1-.2-.3-.3-.5-.5-1.6-1.3-3.9-1.2-5.3.4s-1.2,3.9.4,5.3c.2.2.4.3.6.4-.2,0-.4.2-.6.3-1.8,1.1-2.3,3.4-1.2,5.2,1.1,1.8,3.4,2.3,5.2,1.2.2-.1.4-.3.5-.4,0,.2,0,.4,0,.7.5,2,2.5,3.3,4.5,2.8,2-.5,3.3-2.5,2.8-4.5,0-.2-.1-.4-.2-.6.2,0,.4,0,.7.1,2.1.2,3.9-1.4,4-3.4m-10.6,1.9c-1.6-.7-2.3-2.5-1.7-4,.7-1.6,2.5-2.3,4-1.7,1.6.7,2.3,2.5,1.7,4-.7,1.6-2.5,2.3-4,1.7"/>
</svg>