<?xml version="1.0" encoding="UTF-8"?>
<svg id="Capa_1" data-name="Capa 1" xmlns="http://www.w3.org/2000/svg" viewBox="0 0 1000 560">
  <defs>
    <style>
      .cls-1 {
        fill: #ff007a;
      }

      .cls-2 {
        fill: #0c00ff;
      }
    </style>
  </defs>
  <path class="cls-2" d="m370.39,253.66h12.09v30.94h-12.09v-30.94Zm10.35,10.68h34.04v9.19h-34.04v-9.19Zm32.68-10.68h12.09v30.94h-12.09v-30.94Z"/>
  <path class="cls-2" d="m439.52,271.55v3.87h36.74v9.19h-48.83v-30.94h48.73v9.19h-36.65v3.87h29.97v4.83h-29.97Z"/>
  <path class="cls-2" d="m489.8,253.66v21.76h28.19v9.19h-40.27v-30.94h12.09Z"/>
  <path class="cls-2" d="m530.56,253.66v21.76h28.19v9.19h-40.27v-30.94h12.09Z"/>
  <path class="cls-2" d="m586.54,285.57c-7.03,0-12.68-.62-16.97-1.86-4.29-1.24-7.41-3.08-9.35-5.51-1.95-2.43-2.93-5.46-2.93-9.06s.97-6.63,2.93-9.06c1.95-2.43,5.07-4.27,9.35-5.51,4.29-1.24,9.94-1.86,16.97-1.86s12.68.62,16.97,1.86c4.29,1.24,7.41,3.08,9.36,5.51,1.95,2.43,2.92,5.46,2.92,9.06s-.98,6.63-2.92,9.06c-1.95,2.43-5.07,4.27-9.36,5.51s-9.94,1.86-16.97,1.86Zm0-9.19c3.32,0,6.19-.2,8.61-.6,2.42-.4,4.29-1.13,5.61-2.18s1.98-2.54,1.98-4.47-.66-3.42-1.98-4.47c-1.32-1.05-3.19-1.77-5.61-2.18-2.42-.4-5.29-.6-8.61-.6s-6.23.2-8.73.6c-2.5.4-4.45,1.13-5.85,2.18-1.4,1.05-2.1,2.54-2.1,4.47s.7,3.42,2.1,4.47c1.4,1.05,3.35,1.77,5.85,2.18,2.5.4,5.41.6,8.73.6Z"/>
  <rect class="cls-2" x="625.33" y="243.24" width="12.09" height="23.5"/>
  <path class="cls-1" d="m641.44,278.64c.16-2.07-1.38-3.87-3.44-4.04-.23-.02-.46-.01-.68.01.12-.19.23-.39.32-.6.79-1.91-.11-4.11-2.03-4.9-1.91-.79-4.11.11-4.9,2.03-.09.21-.15.43-.2.65-.14-.17-.3-.34-.47-.49-1.57-1.35-3.94-1.16-5.29.41s-1.16,3.94.41,5.29c.18.15.36.28.56.39-.21.08-.41.18-.61.3-1.77,1.08-2.32,3.39-1.24,5.16,1.08,1.77,3.39,2.32,5.16,1.24.2-.12.38-.26.54-.41.01.22.04.45.1.67.48,2.01,2.51,3.26,4.52,2.78,2.01-.48,3.26-2.51,2.78-4.52-.05-.23-.13-.44-.22-.64.22.06.44.1.67.12,2.07.16,3.87-1.38,4.04-3.44m-10.58,1.91c-1.57-.65-2.31-2.45-1.66-4.02.65-1.57,2.45-2.31,4.02-1.66,1.57.65,2.31,2.45,1.66,4.02-.65,1.57-2.45,2.31-4.02,1.66"/>
</svg>